HIERARCHY
ROOT Hips
{
     OFFSET 11.07470 99.83240 -1.34628
     CHANNELS 6 Xposition Yposition Zposition Zrotation Xrotation Yrotation
     JOINT Spine
     {
          OFFSET 0.00000 11.89050 0.00000
          CHANNELS 3 Zrotation Xrotation Yrotation
          JOINT Spine1
          {
               OFFSET -0.00000 25.65740 0.12766
               CHANNELS 3 Zrotation Xrotation Yrotation
               JOINT HEad
               {
                    OFFSET -0.00000 8.73416 0.01134
                    CHANNELS 3 Zrotation Xrotation Yrotation
                    End Site
                    {
                         OFFSET -0.29000 12.77420 2.51395
                    }
               }
               JOINT LeftShoulder1
               {
                    OFFSET 8.99000 -0.36225 -0.22000
                    CHANNELS 3 Zrotation Xrotation Yrotation
                    JOINT LeftArm
                    {
                         OFFSET 10.28270 -0.00338 0.32212
                         CHANNELS 3 Zrotation Xrotation Yrotation
                         JOINT LeftForeArm
                         {
                              OFFSET 32.76690 0.09914 -1.42434
                              CHANNELS 3 Zrotation Xrotation Yrotation
                              JOINT LeftHand
                              {
                                   OFFSET 27.56430 0.08536 1.02216
                                   CHANNELS 3 Zrotation Xrotation Yrotation
                                   End Site
                                   {
                                        OFFSET 16.74430 -0.60000 1.50291
                                   }
                              }
                         }
                    }
               }
               JOINT RightShoulder
               {
                    OFFSET -8.99000 -0.36225 -0.22000
                    CHANNELS 3 Zrotation Xrotation Yrotation
                    JOINT RightArm
                    {
                         OFFSET -10.28270 -0.00338 0.32212
                         CHANNELS 3 Zrotation Xrotation Yrotation
                         JOINT RightForeArm
                         {
                              OFFSET -32.89710 0.09914 -1.42434
                              CHANNELS 3 Zrotation Xrotation Yrotation
                              JOINT RightHand
                              {
                                   OFFSET -27.49210 0.08536 1.02216
                                   CHANNELS 3 Zrotation Xrotation Yrotation
                                   End Site
                                   {
                                        OFFSET -16.63120 -0.60000 1.50291
                                   }
                              }
                         }
                    }
               }
          }
     }
     JOINT LeftUpLeg
     {
          OFFSET 8.94580 -8.66707 0.10165
          CHANNELS 3 Zrotation Xrotation Yrotation
          JOINT LeftLeg
          {
               OFFSET 0.00000 -44.42270 1.37270
               CHANNELS 3 Zrotation Xrotation Yrotation
               JOINT LeftFoot
               {
                    OFFSET -0.25355 -42.09240 -1.46059
                    CHANNELS 3 Zrotation Xrotation Yrotation
                    JOINT LeftToes
                    {
                         OFFSET -0.04000 -4.41509 8.49910
                         CHANNELS 3 Zrotation Xrotation Yrotation
                         End Site
                         {
                              OFFSET 0.08000 -0.04745 9.77979
                         }
                    }
               }
          }
     }
     JOINT RightUpLeg
     {
          OFFSET -8.94580 -8.66707 0.10165
          CHANNELS 3 Zrotation Xrotation Yrotation
          JOINT RightLeg
          {
               OFFSET 0.00000 -44.42270 1.37270
               CHANNELS 3 Zrotation Xrotation Yrotation
               JOINT RightFoot
               {
                    OFFSET 0.25355 -42.09240 -1.46059
                    CHANNELS 3 Zrotation Xrotation Yrotation
                    JOINT RightToes
                    {
                         OFFSET 0.04000 -4.41509 8.49910
                         CHANNELS 3 Zrotation Xrotation Yrotation
                         End Site
                         {
                              OFFSET -0.08000 -0.13745 9.77979
                         }
                    }
               }
          }
     }
}
MOTION
Frames: 15
Frame Time: 0.01667
35.97610 91.08570 7.53258 -2.91330 8.06645 -107.13200 -1.61740 9.94230 -2.58251 -0.18810 20.10700 -5.09483 13.57650 -8.05468 18.20460 -0.00000 -0.00000 0.00000 -65.55500 -32.93780 -79.35890 -15.88030 26.34820 -77.17610 5.55594 9.67997 -0.87718 21.48180 1.85199 5.48107 54.51530 -31.00900 71.99060 22.76660 39.48140 91.87150 -5.55712 9.68432 0.87760 19.11370 -26.88700 16.38690 3.85088 51.78510 11.65010 -3.35544 9.46777 0.42728 -6.02058 -53.67400 -24.35470 -16.31240 -14.45250 -7.48012 -4.00842 1.81002 8.25234 33.40880 9.52891 -5.18606 -5.29730 -6.57004 1.84707 
37.17740 92.46580 10.43370 -2.15050 8.49861 -112.79300 -1.01304 9.76202 -2.68761 -0.81923 19.71460 -5.31129 12.93750 -5.96227 23.51420 -0.00000 -0.00000 0.00000 -66.17020 -34.20810 -77.25840 -16.37630 27.61020 -77.83050 5.55594 9.67997 -0.87718 21.27180 1.82277 5.41635 54.30050 -29.45340 71.77930 22.43400 39.30160 92.29930 -5.55712 9.68432 0.87760 19.09550 -24.93160 16.21730 0.11023 48.01250 19.83080 -1.93308 12.38940 0.24679 -6.23892 -54.20670 -24.55680 -15.02670 -15.79490 -11.48970 -2.49900 5.75274 6.97697 29.26950 4.52258 -3.26232 1.18496 1.48270 0.53133 
38.29430 93.83330 13.17130 -1.57150 8.61688 -118.24800 -0.34771 9.57661 -2.38628 -1.70525 19.31220 -4.64123 11.97130 -4.15203 27.50130 -0.00000 -0.00000 0.00000 -68.30840 -35.15680 -75.96250 -16.96890 28.94150 -78.46900 5.55594 9.67997 -0.87718 20.69470 1.75001 5.26562 55.25920 -27.96160 71.59480 22.60150 39.58930 92.43760 -5.55712 9.68432 0.87760 18.32950 -23.11400 15.08150 -2.17588 43.98120 25.89780 -1.62280 14.25730 0.20780 -5.46209 -52.88670 -23.28360 -13.56480 -17.43830 -14.71710 -3.50470 12.73520 9.01360 25.96450 -2.52605 -1.32400 7.65351 8.69316 -2.02893 
39.35610 95.15890 15.61230 -1.26443 8.26814 -123.55200 -0.36081 9.34535 -1.70269 -2.86389 18.85950 -3.15109 10.87060 -2.66092 30.19880 -0.00000 -0.00000 0.00000 -71.09390 -35.84170 -75.23720 -17.50080 29.73680 -79.16860 5.55594 9.67997 -0.87718 19.85660 1.65544 5.08329 57.05200 -26.64540 71.45520 23.19450 40.26920 92.24570 -5.55712 9.68432 0.87760 16.96410 -21.45950 13.58850 -2.99206 39.91020 29.25680 -2.70623 15.24810 0.43143 -4.11532 -49.89510 -21.20460 -12.29010 -18.33740 -15.63150 -6.11801 19.63700 11.92600 23.56360 -7.22665 -0.25984 10.72950 11.78400 -3.55069 
40.40460 96.39200 17.77990 -1.14633 7.64067 -128.70300 -0.92670 9.08147 -0.75331 -4.13312 18.31610 -1.12317 9.81666 -1.41645 31.79630 -0.00000 -0.00000 0.00000 -74.07880 -36.63260 -75.08390 -17.94490 30.14770 -79.83660 5.55594 9.67997 -0.87718 18.89250 1.56025 4.92030 59.17710 -25.54660 71.38920 24.03540 41.16600 91.77180 -5.55712 9.68432 0.87760 15.53250 -20.05210 12.20250 -2.59888 36.11870 29.64950 -5.54128 15.67970 1.01427 -2.82173 -45.83030 -19.43840 -11.36780 -18.20460 -13.81820 -8.69311 25.54480 14.18810 22.09200 -8.17199 -0.07428 9.38373 10.69820 -2.56129 
41.47960 97.47480 19.72340 -1.07030 6.89833 -133.50999 -1.71795 8.75375 0.26781 -5.31142 17.62280 1.00976 8.92488 -0.33018 32.58310 -0.00000 -0.00000 0.00000 -76.99170 -37.86460 -75.54520 -18.31540 30.51040 -80.34330 5.55594 9.67997 -0.87718 17.94310 1.47687 4.79588 61.09800 -24.63990 71.39810 24.88680 42.04520 91.19380 -5.55712 9.68432 0.87760 14.48310 -18.93700 11.01190 -1.41652 32.71030 27.05750 -10.20260 16.03990 1.99282 -1.96285 -41.79700 -18.90130 -11.03810 -17.24100 -10.15400 -10.01130 30.86970 15.46840 21.79620 -6.87829 -0.31806 5.65634 7.32305 -0.08434 
42.57930 98.32410 21.49870 -0.86889 6.06426 -137.69200 -2.35321 8.32025 1.15457 -6.24307 16.70860 2.81288 8.23012 0.66583 32.89550 -0.00000 -0.00000 0.00000 -79.41520 -39.54740 -76.44630 -18.57610 30.82620 -80.67500 5.55594 9.67997 -0.87718 17.15680 1.41205 4.70536 62.36420 -23.87840 71.41060 25.53950 42.69930 90.79540 -5.55712 9.68432 0.87760 14.00100 -18.18830 9.86297 0.16144 29.65420 21.44720 -16.16920 16.82290 3.34150 -1.65754 -39.21480 -19.94000 -11.35880 -15.84500 -6.12782 -9.96701 35.99540 16.15360 22.47910 -5.58684 -0.57221 2.53332 4.41549 2.14272 
43.65880 98.89180 23.15150 -0.44635 5.05108 -141.01199 -2.53543 7.72875 1.75000 -6.86388 15.51170 3.98640 7.69540 1.61090 33.06380 -0.00000 -0.00000 0.00000 -81.21390 -41.54650 -77.64320 -18.72890 31.09220 -80.81950 5.55594 9.67997 -0.87718 16.66550 1.37043 4.63924 62.77540 -23.28430 71.31580 25.96170 43.08140 90.80450 -5.55712 9.68432 0.87760 13.96320 -17.88990 8.58090 1.82824 26.96600 12.72050 -22.51270 17.88630 4.92992 -1.79393 -38.52830 -21.85430 -12.17320 -14.23010 -3.13468 -9.32186 40.68960 16.68910 23.43380 -5.18884 -0.67041 1.27200 3.35311 3.29591 
44.70020 99.19160 24.70550 0.12169 3.74830 -143.37700 -2.34796 6.97376 2.00358 -7.21330 14.04340 4.44470 7.23488 2.48857 33.33390 -0.00000 -0.00000 0.00000 -82.48540 -43.65950 -79.05080 -18.79930 31.28460 -80.76640 5.55594 9.67997 -0.87718 16.56360 1.35689 4.59936 62.40930 -22.97220 71.03930 26.29660 43.31380 91.26910 -5.55712 9.68432 0.87760 14.04530 -18.15230 7.10711 3.34526 25.10040 1.39557 -28.30290 17.71010 6.23072 -1.64395 -37.54320 -22.26040 -13.38410 -12.37870 -1.86026 -8.83263 44.49240 17.06400 24.01690 -5.24980 -0.67098 1.27618 3.46608 3.45875 
45.75040 99.27110 26.19070 0.66918 2.14862 -144.95200 -2.14385 6.12845 1.98776 -7.38428 12.41590 4.33062 6.75160 3.20794 33.81340 -0.00000 -0.00000 0.00000 -83.50910 -45.71750 -80.69600 -18.83860 31.39700 -80.51100 5.55594 9.67997 -0.87718 16.87230 1.37376 4.59419 61.51420 -23.04490 70.58810 26.67190 43.54720 92.08930 -5.55712 9.68432 0.87760 14.01430 -19.07190 5.57673 4.55943 24.88180 -10.40450 -32.24990 14.46440 6.24745 -0.52209 -33.18400 -19.29530 -14.96200 -10.23770 -2.00656 -8.46271 47.09580 16.70940 23.85910 -4.97031 -0.72484 1.44903 3.54415 3.19389 
46.84420 99.13190 27.66840 1.11905 0.42720 -146.14600 -2.08212 5.29878 1.83814 -7.42528 10.79240 3.94645 6.17695 3.65771 34.52590 -0.00000 -0.00000 0.00000 -84.65830 -47.64590 -82.71570 -18.91050 31.47550 -80.08630 5.55594 9.67997 -0.87718 17.49140 1.41524 4.62232 60.41960 -23.49730 70.05210 27.10140 43.85330 93.07960 -5.55712 9.68432 0.87760 13.91200 -20.57120 4.30034 5.36873 26.75490 -19.57440 -33.25000 8.39481 4.70012 0.75640 -25.20260 -14.72560 -16.76130 -7.84957 -2.67101 -7.59929 48.45850 15.12910 22.92430 -4.00580 -0.89131 1.30995 3.18508 2.95398 
47.93530 98.72530 29.21270 1.50936 -1.13245 -147.48801 -2.04124 4.55821 1.71155 -7.30037 9.31534 3.62593 5.47439 3.79552 35.49760 -0.00000 -0.00000 0.00000 -86.24100 -49.46230 -85.24140 -19.05830 31.59200 -79.59140 5.55594 9.67997 -0.87718 18.21120 1.46666 4.66815 59.46030 -24.20120 69.57260 27.53850 44.21280 94.01130 -5.55712 9.68432 0.87760 13.94810 -22.25680 3.62460 5.64715 30.25180 -24.26630 -31.70510 1.53152 2.58032 1.40425 -16.39630 -11.20930 -18.50830 -5.31216 -2.95412 -5.94434 48.60630 12.62010 21.60560 -2.48833 -1.12681 0.94440 2.60845 2.87848 
48.99170 98.03200 30.88250 1.90960 -2.29421 -149.42200 -1.88812 3.94920 1.72375 -6.93906 8.07832 3.60946 4.62820 3.66180 36.76510 -0.00000 -0.00000 0.00000 -88.36330 -51.25260 -88.27380 -19.29010 31.78450 -79.17090 5.55594 9.67997 -0.87718 18.79790 1.51001 4.70988 58.89840 -24.95240 69.31120 27.93760 44.55510 94.66000 -5.55712 9.68432 0.87760 14.37940 -23.61740 3.79676 5.31292 34.29010 -24.76120 -28.80910 -4.49484 0.82677 1.60577 -9.95645 -9.42124 -19.87410 -2.76789 -2.32993 -3.99527 47.50640 10.16380 20.62590 -0.52545 -1.42401 0.26568 1.74782 3.06213 
50.06100 97.13700 32.70320 2.33177 -2.99488 -152.16299 -1.69774 3.50648 1.91947 -6.32392 7.13950 3.96032 3.67898 3.29376 38.33530 -0.00000 -0.00000 0.00000 -90.95840 -53.14590 -91.71920 -19.59340 32.03520 -78.94060 5.55594 9.67997 -0.87718 19.07190 1.52983 4.72651 58.90930 -25.56120 69.44070 28.29280 44.82240 94.83550 -5.55712 9.68432 0.87760 15.28360 -24.29620 4.84574 4.55040 37.67310 -22.45690 -25.43130 -8.90114 -0.24509 1.61577 -7.83535 -8.77536 -20.61680 -0.35363 -0.75715 -2.72763 45.11050 8.73561 20.79330 1.89627 -1.86041 -1.05777 0.17732 3.60400 
51.25610 96.17740 34.67050 2.68590 -3.36220 -155.62199 -1.71659 3.26605 2.26261 -5.55413 6.55012 4.54694 2.76691 2.62504 40.16720 -0.00000 -0.00000 0.00000 -93.98250 -55.24730 -95.59220 -19.95930 32.30530 -78.91780 5.55594 9.67997 -0.87718 18.94580 1.51727 4.70271 59.58920 -25.91120 70.13860 28.61660 44.99260 94.43090 -5.55712 9.68432 0.87760 16.40970 -24.32900 6.45654 3.83880 39.67700 -18.77630 -21.98970 -11.29320 -0.66237 1.48165 -10.40080 -8.69452 -20.73330 1.86052 1.39658 -2.82078 41.54530 8.63964 22.65750 4.46770 -2.51501 -3.05911 -2.24949 4.37156 
